# xmcd
#
# Track frame offsets:
# 225
# 15255
# 31642
# 51016
# 71517
# 89772
# 107517
# 124510
# 141208
# 156924
# 173834
# 194654
# 215141
# 232989
# 243467
# 255080
# 270047
# 281519
#
# Disc length: 3945 seconds
#
#
# Revision: 0
# Processed by: cddbd v1.4PL0 Copyright (c) Steve Scherf et al.
# Submitted via: FreeRIP 2.40 
#
DISCID=ed0f6612
DTITLE=Aaron Neville - Baby, I'm A Want You
DYEAR=1989
DGENRE=Soul
TTITLE0=Tell It Like It Is
TTITLE1=Baby I Am A Want You
TTITLE2=Hercules
TTITLE3=Performance
TTITLE4=Make Me Strong
TTITLE5=Son Of A Preacher Daughter
TTITLE6=People Get Ready
TTITLE7=Struttin' On Sunday
TTITLE8=Too Late
TTITLE9=Tell Me What's On Your Mind
TTITLE10=Wild Flower
TTITLE11=Mojo Hannah
TTITLE12=House On A Hill
TTITLE13=Over You
TTITLE14=Why Worry
TTITLE15=She Took You For A Ride
TTITLE16=A Hard Nut To Crack
TTITLE17=Jailhouse
EXTD=
EXTT0=
EXTT1=
EXTT2=
EXTT3=
EXTT4=
EXTT5=
EXTT6=
EXTT7=
EXTT8=
EXTT9=
EXTT10=
EXTT11=
EXTT12=
EXTT13=
EXTT14=
EXTT15=
EXTT16=
EXTT17=
PLAYORDER=
